<mxfile host="www.draw.io" modified="2020-01-18T17:10:21.510Z" agent="Mozilla/5.0 (X11; Linux x86_64; rv:68.0) Gecko/20100101 Firefox/68.0" etag="kJD1GLM3TNLkGCeFXC6V" version="12.5.5" type="github">
  <diagram id="sGHDczZBu-DUSyE2jVfI" name="Page-1">
    <mxGraphModel dx="782" dy="738" grid="1" gridSize="10" guides="1" tooltips="1" connect="1" arrows="1" fold="1" page="1" pageScale="1" pageWidth="850" pageHeight="1100" math="0" shadow="0">
      <root>
        <mxCell id="0"/>
        <mxCell id="1" parent="0"/>
        <mxCell id="Kb2IKhhoHodHiHDPedFr-25" value="" style="rounded=0;whiteSpace=wrap;html=1;fillColor=none;" vertex="1" parent="1">
          <mxGeometry x="120" y="30" width="530" height="610" as="geometry"/>
        </mxCell>
        <mxCell id="Kb2IKhhoHodHiHDPedFr-9" style="rounded=0;orthogonalLoop=1;jettySize=auto;html=1;endArrow=none;endFill=0;" edge="1" parent="1" source="Kb2IKhhoHodHiHDPedFr-1">
          <mxGeometry relative="1" as="geometry">
            <mxPoint x="159" y="184" as="targetPoint"/>
          </mxGeometry>
        </mxCell>
        <mxCell id="Kb2IKhhoHodHiHDPedFr-1" value="Usuario" style="shape=umlActor;verticalLabelPosition=bottom;labelBackgroundColor=#ffffff;verticalAlign=top;html=1;outlineConnect=0;" vertex="1" parent="1">
          <mxGeometry x="30" y="200" width="30" height="60" as="geometry"/>
        </mxCell>
        <mxCell id="Kb2IKhhoHodHiHDPedFr-2" value="Casas apuestas" style="shape=umlActor;verticalLabelPosition=bottom;labelBackgroundColor=#ffffff;verticalAlign=top;html=1;outlineConnect=0;" vertex="1" parent="1">
          <mxGeometry x="670" y="270" width="30" height="60" as="geometry"/>
        </mxCell>
        <mxCell id="Kb2IKhhoHodHiHDPedFr-3" value="&lt;div&gt;PÃ¡ginas de &lt;br&gt;&lt;/div&gt;&lt;div&gt;resultados &lt;br&gt;&lt;/div&gt;&lt;div&gt;deportivos&lt;/div&gt;" style="shape=umlActor;verticalLabelPosition=bottom;labelBackgroundColor=#ffffff;verticalAlign=top;html=1;outlineConnect=0;" vertex="1" parent="1">
          <mxGeometry x="710" y="440" width="30" height="60" as="geometry"/>
        </mxCell>
        <mxCell id="Kb2IKhhoHodHiHDPedFr-10" style="edgeStyle=none;rounded=0;orthogonalLoop=1;jettySize=auto;html=1;endArrow=none;endFill=0;" edge="1" parent="1" source="Kb2IKhhoHodHiHDPedFr-4" target="Kb2IKhhoHodHiHDPedFr-7">
          <mxGeometry relative="1" as="geometry"/>
        </mxCell>
        <mxCell id="Kb2IKhhoHodHiHDPedFr-4" value="IULogin" style="shape=umlBoundary;whiteSpace=wrap;html=1;" vertex="1" parent="1">
          <mxGeometry x="160" y="140" width="100" height="80" as="geometry"/>
        </mxCell>
        <mxCell id="Kb2IKhhoHodHiHDPedFr-16" style="edgeStyle=none;rounded=0;orthogonalLoop=1;jettySize=auto;html=1;endArrow=none;endFill=0;exitX=0.01;exitY=0.513;exitDx=0;exitDy=0;exitPerimeter=0;" edge="1" parent="1" source="Kb2IKhhoHodHiHDPedFr-5" target="Kb2IKhhoHodHiHDPedFr-2">
          <mxGeometry relative="1" as="geometry"/>
        </mxCell>
        <mxCell id="Kb2IKhhoHodHiHDPedFr-5" value="&lt;div&gt;IUCasas&lt;/div&gt;&lt;div&gt;Apuestas&lt;/div&gt;" style="shape=umlBoundary;whiteSpace=wrap;html=1;direction=west;" vertex="1" parent="1">
          <mxGeometry x="500" y="250" width="100" height="80" as="geometry"/>
        </mxCell>
        <mxCell id="Kb2IKhhoHodHiHDPedFr-18" style="edgeStyle=none;rounded=0;orthogonalLoop=1;jettySize=auto;html=1;entryX=0.333;entryY=0.667;entryDx=0;entryDy=0;entryPerimeter=0;endArrow=none;endFill=0;exitX=0;exitY=0.513;exitDx=0;exitDy=0;exitPerimeter=0;" edge="1" parent="1" source="Kb2IKhhoHodHiHDPedFr-6" target="Kb2IKhhoHodHiHDPedFr-3">
          <mxGeometry relative="1" as="geometry"/>
        </mxCell>
        <mxCell id="Kb2IKhhoHodHiHDPedFr-6" value="&lt;div&gt;IUPaginas&lt;/div&gt;&lt;div&gt;Resultados&lt;/div&gt;&lt;div&gt;Deportivos&lt;br&gt;&lt;/div&gt;" style="shape=umlBoundary;whiteSpace=wrap;html=1;direction=west;" vertex="1" parent="1">
          <mxGeometry x="500" y="410" width="100" height="80" as="geometry"/>
        </mxCell>
        <mxCell id="Kb2IKhhoHodHiHDPedFr-11" style="edgeStyle=none;rounded=0;orthogonalLoop=1;jettySize=auto;html=1;entryX=0;entryY=0.5;entryDx=0;entryDy=0;endArrow=none;endFill=0;" edge="1" parent="1" source="Kb2IKhhoHodHiHDPedFr-7" target="Kb2IKhhoHodHiHDPedFr-8">
          <mxGeometry relative="1" as="geometry"/>
        </mxCell>
        <mxCell id="Kb2IKhhoHodHiHDPedFr-7" value="Autenticar" style="ellipse;shape=umlControl;whiteSpace=wrap;html=1;" vertex="1" parent="1">
          <mxGeometry x="340" y="140" width="70" height="80" as="geometry"/>
        </mxCell>
        <mxCell id="Kb2IKhhoHodHiHDPedFr-8" value="Usuarios" style="ellipse;shape=umlEntity;whiteSpace=wrap;html=1;" vertex="1" parent="1">
          <mxGeometry x="480" y="140" width="80" height="80" as="geometry"/>
        </mxCell>
        <mxCell id="Kb2IKhhoHodHiHDPedFr-14" style="edgeStyle=none;rounded=0;orthogonalLoop=1;jettySize=auto;html=1;entryX=1.04;entryY=0.375;entryDx=0;entryDy=0;entryPerimeter=0;endArrow=none;endFill=0;" edge="1" parent="1" source="Kb2IKhhoHodHiHDPedFr-12" target="Kb2IKhhoHodHiHDPedFr-5">
          <mxGeometry relative="1" as="geometry"/>
        </mxCell>
        <mxCell id="Kb2IKhhoHodHiHDPedFr-15" style="edgeStyle=none;rounded=0;orthogonalLoop=1;jettySize=auto;html=1;endArrow=none;endFill=0;" edge="1" parent="1" source="Kb2IKhhoHodHiHDPedFr-12" target="Kb2IKhhoHodHiHDPedFr-6">
          <mxGeometry relative="1" as="geometry"/>
        </mxCell>
        <mxCell id="Kb2IKhhoHodHiHDPedFr-12" value="Consultor Datos" style="ellipse;shape=umlControl;whiteSpace=wrap;html=1;" vertex="1" parent="1">
          <mxGeometry x="340" y="310" width="70" height="80" as="geometry"/>
        </mxCell>
        <mxCell id="Kb2IKhhoHodHiHDPedFr-19" style="edgeStyle=none;rounded=0;orthogonalLoop=1;jettySize=auto;html=1;entryX=0.029;entryY=0.45;entryDx=0;entryDy=0;entryPerimeter=0;endArrow=none;endFill=0;" edge="1" parent="1" source="Kb2IKhhoHodHiHDPedFr-13" target="Kb2IKhhoHodHiHDPedFr-12">
          <mxGeometry relative="1" as="geometry"/>
        </mxCell>
        <mxCell id="Kb2IKhhoHodHiHDPedFr-20" style="edgeStyle=none;rounded=0;orthogonalLoop=1;jettySize=auto;html=1;endArrow=none;endFill=0;exitX=0.02;exitY=0.513;exitDx=0;exitDy=0;exitPerimeter=0;" edge="1" parent="1" source="Kb2IKhhoHodHiHDPedFr-13" target="Kb2IKhhoHodHiHDPedFr-1">
          <mxGeometry relative="1" as="geometry">
            <mxPoint x="110" y="160" as="targetPoint"/>
          </mxGeometry>
        </mxCell>
        <mxCell id="Kb2IKhhoHodHiHDPedFr-13" value="IUDatos" style="shape=umlBoundary;whiteSpace=wrap;html=1;" vertex="1" parent="1">
          <mxGeometry x="160" y="310" width="100" height="80" as="geometry"/>
        </mxCell>
        <mxCell id="Kb2IKhhoHodHiHDPedFr-24" style="edgeStyle=none;rounded=0;orthogonalLoop=1;jettySize=auto;html=1;endArrow=none;endFill=0;" edge="1" parent="1" source="Kb2IKhhoHodHiHDPedFr-23" target="Kb2IKhhoHodHiHDPedFr-12">
          <mxGeometry relative="1" as="geometry"/>
        </mxCell>
        <mxCell id="Kb2IKhhoHodHiHDPedFr-23" value="Estadisticas" style="ellipse;shape=umlEntity;whiteSpace=wrap;html=1;" vertex="1" parent="1">
          <mxGeometry x="330" y="480" width="80" height="80" as="geometry"/>
        </mxCell>
      </root>
    </mxGraphModel>
  </diagram>
</mxfile>
